<svg width="469" height="443" viewBox="0 0 469 443" fill="none" xmlns="http://www.w3.org/2000/svg">
<path d="M466.653 216.646C467.187 216.464 467.744 216.521 468.209 216.759C429.303 252.621 397.933 316.22 383.773 392.922C382.245 399.417 381.166 406.013 380.555 412.668C379.25 421.868 378.19 431.229 377.392 440.729C377.336 441.393 377.284 442.058 377.23 442.722C298.201 433.152 228.853 384.282 199.746 309.868C199.57 309.419 199.572 308.946 199.713 308.522C219.026 320.813 242.364 328 267.5 328C276.286 328 284.852 327.121 293.104 325.454C301.317 334.841 310.729 343.081 321.06 350.049C322.11 350.757 323.539 350.298 324.014 349.123C345.755 295.312 389.137 249.109 447.378 223.22L466.653 216.646ZM231 0C352.252 0 451.683 87.3542 461.245 198.431C461.175 198.452 461.105 198.472 461.035 198.494L460.52 198.663L440.438 205.512L439.66 205.857C420.692 214.289 403.165 224.732 387.291 236.814C388.317 230.014 388.85 223.065 388.85 216C388.85 134.483 318.178 68.4004 231 68.4004C143.822 68.4004 73.1504 134.483 73.1504 216C73.1504 289.522 130.639 350.485 205.876 361.737C224.464 388.773 248.626 411.075 276.358 427.836C261.692 430.566 246.525 432 231 432C103.422 432 0 335.294 0 216C0 96.7065 103.422 0 231 0Z" fill="url(#paint0_linear_2012_2812)"/>
<defs>
<linearGradient id="paint0_linear_2012_2812" x1="93.6833" y1="50.4" x2="434.62" y2="460.748" gradientUnits="userSpaceOnUse">
<stop stop-color="#005DF4"/>
<stop offset="1" stop-color="#00FF62"/>
</linearGradient>
</defs>
</svg>
