<svg width="1271" height="515" viewBox="0 0 1271 515" fill="none" xmlns="http://www.w3.org/2000/svg">
<path d="M466.653 216.646C467.187 216.464 467.744 216.521 468.209 216.759C429.303 252.621 397.933 316.22 383.773 392.922C382.245 399.417 381.166 406.013 380.555 412.668C379.25 421.868 378.19 431.229 377.392 440.729C377.336 441.393 377.284 442.058 377.23 442.722C298.201 433.152 228.853 384.282 199.746 309.868C199.57 309.419 199.572 308.946 199.713 308.522C219.026 320.813 242.364 328 267.5 328C276.286 328 284.852 327.121 293.104 325.454C301.317 334.841 310.729 343.081 321.06 350.049C322.11 350.757 323.539 350.298 324.014 349.123C345.755 295.312 389.137 249.109 447.378 223.22L466.653 216.646ZM231 0C352.252 0 451.683 87.3542 461.245 198.431C461.175 198.452 461.105 198.472 461.035 198.494L460.52 198.663L440.438 205.512L439.66 205.857C420.692 214.289 403.165 224.732 387.291 236.814C388.317 230.014 388.85 223.065 388.85 216C388.85 134.483 318.178 68.4004 231 68.4004C143.822 68.4004 73.1504 134.483 73.1504 216C73.1504 289.522 130.639 350.485 205.876 361.737C224.464 388.773 248.626 411.075 276.358 427.836C261.692 430.566 246.525 432 231 432C103.422 432 0 335.294 0 216C0 96.7065 103.422 0 231 0Z" fill="url(#paint0_linear_2012_2806)"/>
<path d="M605.02 268.58V443H579.35C573.797 443 570.283 440.45 568.81 435.35L565.92 421.41C558.78 428.663 550.903 434.557 542.29 439.09C533.677 443.51 523.533 445.72 511.86 445.72C502.34 445.72 493.897 444.133 486.53 440.96C479.277 437.673 473.157 433.083 468.17 427.19C463.183 421.297 459.387 414.327 456.78 406.28C454.287 398.12 453.04 389.167 453.04 379.42V268.58H495.03V379.42C495.03 390.073 497.467 398.347 502.34 404.24C507.327 410.02 514.75 412.91 524.61 412.91C531.863 412.91 538.663 411.323 545.01 408.15C551.357 404.863 557.363 400.387 563.03 394.72V268.58H605.02ZM738.794 368.54C726.667 369.107 716.467 370.183 708.194 371.77C699.921 373.243 693.291 375.17 688.304 377.55C683.317 379.93 679.747 382.707 677.594 385.88C675.441 389.053 674.364 392.51 674.364 396.25C674.364 403.617 676.517 408.887 680.824 412.06C685.244 415.233 690.967 416.82 697.994 416.82C706.607 416.82 714.031 415.29 720.264 412.23C726.611 409.057 732.787 404.297 738.794 397.95V368.54ZM642.574 292.89C662.634 274.53 686.774 265.35 714.994 265.35C725.194 265.35 734.317 267.05 742.364 270.45C750.411 273.737 757.211 278.383 762.764 284.39C768.317 290.283 772.511 297.367 775.344 305.64C778.291 313.913 779.764 322.98 779.764 332.84V443H760.724C756.757 443 753.697 442.433 751.544 441.3C749.391 440.053 747.691 437.617 746.444 433.99L742.704 421.41C738.284 425.377 733.977 428.89 729.784 431.95C725.591 434.897 721.227 437.39 716.694 439.43C712.161 441.47 707.287 443 702.074 444.02C696.974 445.153 691.307 445.72 685.074 445.72C677.707 445.72 670.907 444.757 664.674 442.83C658.441 440.79 653.057 437.787 648.524 433.82C643.991 429.853 640.477 424.923 637.984 419.03C635.491 413.137 634.244 406.28 634.244 398.46C634.244 394.04 634.981 389.677 636.454 385.37C637.927 380.95 640.307 376.757 643.594 372.79C646.994 368.823 651.357 365.083 656.684 361.57C662.011 358.057 668.527 354.997 676.234 352.39C684.054 349.783 693.121 347.687 703.434 346.1C713.747 344.4 725.534 343.38 738.794 343.04V332.84C738.794 321.167 736.301 312.553 731.314 307C726.327 301.333 719.131 298.5 709.724 298.5C702.924 298.5 697.257 299.293 692.724 300.88C688.304 302.467 684.394 304.28 680.994 306.32C677.594 308.247 674.477 310.003 671.644 311.59C668.924 313.177 665.864 313.97 662.464 313.97C659.517 313.97 657.024 313.233 654.984 311.76C652.944 310.173 651.301 308.36 650.054 306.32L642.574 292.89ZM861.81 190.38V443H819.82V190.38H861.81ZM947.166 268.58V443H905.006V268.58H947.166ZM952.946 217.75C952.946 221.377 952.21 224.777 950.736 227.95C949.263 231.123 947.28 233.9 944.786 236.28C942.406 238.66 939.573 240.587 936.286 242.06C933 243.42 929.486 244.1 925.746 244.1C922.12 244.1 918.663 243.42 915.376 242.06C912.203 240.587 909.426 238.66 907.046 236.28C904.666 233.9 902.74 231.123 901.266 227.95C899.906 224.777 899.226 221.377 899.226 217.75C899.226 214.01 899.906 210.497 901.266 207.21C902.74 203.923 904.666 201.09 907.046 198.71C909.426 196.33 912.203 194.46 915.376 193.1C918.663 191.627 922.12 190.89 925.746 190.89C929.486 190.89 933 191.627 936.286 193.1C939.573 194.46 942.406 196.33 944.786 198.71C947.28 201.09 949.263 203.923 950.736 207.21C952.21 210.497 952.946 214.01 952.946 217.75ZM1002.21 443V300.2L987.084 297.82C983.798 297.14 981.134 296.007 979.094 294.42C977.168 292.72 976.204 290.34 976.204 287.28V270.11H1002.21V257.19C1002.21 247.217 1003.69 238.263 1006.63 230.33C1009.69 222.397 1014 215.653 1019.55 210.1C1025.22 204.547 1032.08 200.297 1040.12 197.35C1048.17 194.403 1057.24 192.93 1067.32 192.93C1075.37 192.93 1082.85 194.007 1089.76 196.16L1088.91 217.24C1088.8 218.827 1088.35 220.13 1087.55 221.15C1086.76 222.057 1085.68 222.793 1084.32 223.36C1083.08 223.813 1081.6 224.153 1079.9 224.38C1078.2 224.493 1076.39 224.55 1074.46 224.55C1069.48 224.55 1065 225.117 1061.03 226.25C1057.18 227.27 1053.89 229.14 1051.17 231.86C1048.45 234.467 1046.36 237.98 1044.88 242.4C1043.52 246.707 1042.84 252.09 1042.84 258.55V270.11H1088.23V300.03H1044.2V443H1002.21ZM1270.27 268.58L1175.24 490.94C1173.99 493.887 1172.35 496.097 1170.31 497.57C1168.38 499.157 1165.38 499.95 1161.3 499.95H1130.02L1162.66 429.91L1092.11 268.58H1129C1132.29 268.58 1134.84 269.373 1136.65 270.96C1138.58 272.547 1139.99 274.36 1140.9 276.4L1177.96 366.84C1179.21 369.9 1180.23 372.96 1181.02 376.02C1181.93 379.08 1182.78 382.197 1183.57 385.37C1184.59 382.197 1185.61 379.08 1186.63 376.02C1187.65 372.847 1188.78 369.73 1190.03 366.67L1225.05 276.4C1225.96 274.133 1227.43 272.263 1229.47 270.79C1231.62 269.317 1234 268.58 1236.61 268.58H1270.27Z" fill="#272727"/>
<defs>
<linearGradient id="paint0_linear_2012_2806" x1="93.6833" y1="50.4" x2="434.62" y2="460.748" gradientUnits="userSpaceOnUse">
<stop stop-color="#005DF4"/>
<stop offset="1" stop-color="#00FF62"/>
</linearGradient>
</defs>
</svg>
